Coordinates

Units are S.I. units (second, meters, Newtons, ...)
If the header above contains a line with 'inDegrees', this indicates whether rotational values are in degrees (yes) or radians (no).

inDegrees=no
nColumns=21
nRows=30
DataType=double
version=3
OpenSimVersion=4.6-2026-03-31-d6972f9e6
endheader
time	/jointset/ground_pelvis/pelvis_tilt/value	/jointset/ground_pelvis/pelvis_list/value	/jointset/ground_pelvis/pelvis_rotation/value	/jointset/ground_pelvis/pelvis_tx/value	/jointset/ground_pelvis/pelvis_ty/value	/jointset/ground_pelvis/pelvis_tz/value	/jointset/hip_r/hip_flexion_r/value	/jointset/hip_r/hip_adduction_r/value	/jointset/hip_r/hip_rotation_r/value	/jointset/walker_knee_r/knee_angle_r/value	/jointset/patellofemoral_r/knee_angle_r_beta/value	/jointset/ankle_r/ankle_angle_r/value	/jointset/subtalar_r/subtalar_angle_r/value	/jointset/hip_l/hip_flexion_l/value	/jointset/hip_l/hip_adduction_l/value	/jointset/hip_l/hip_rotation_l/value	/jointset/walker_knee_l/knee_angle_l/value	/jointset/patellofemoral_l/knee_angle_l_beta/value	/jointset/ankle_l/ankle_angle_l/value	/jointset/subtalar_l/subtalar_angle_l/value
142.496	-0.1707832735980344	0.1002731740335373	0.1851683670691139	1.190901727068649	1.008151945091152	-0.3448594947174801	-0.09722562130734234	-0.09195526531022097	-0.07813824596292306	0.8487021802120934	0.8487021794138411	-0.6073205813189766	-0.4562868286286356	0.5114173472017385	0.1696113516933887	-0.07683876037957336	0.3160480119763867	0.316048010656757	-0.004248413574937816	-0.02566531497372673
142.5	-0.1683699538387523	0.1009894562612508	0.188137835153862	1.19068079772381	1.00573975205082	-0.3458856009180409	-0.0879543513687851	-0.095411150193853	-0.08059002190302349	0.8831753649686295	0.8831753640020145	-0.59780324392488	-0.4570970944218223	0.5090620282229447	0.1720127197392425	-0.07257860961843261	0.3346513491135117	0.3346513477445994	0.004974902458923929	-0.03339464411634199
142.504	-0.1660773948694553	0.1018695772414673	0.1915214158457539	1.190382832275233	1.003190971725664	-0.3469461473347071	-0.07824203549308227	-0.09951335480615821	-0.08375603218125646	0.917884158184549	0.9178841570520007	-0.5875354102253398	-0.4566041460284723	0.5076032571951086	0.1748705081990076	-0.0678850644647255	0.3560006990179056	0.3560006976584495	0.01486735701764897	-0.04364381311995395
142.508	-0.1639721243850286	0.1029037885526779	0.1953081237298769	1.190001250818282	1.000506834712964	-0.3480428797720362	-0.06800764977111726	-0.1043053659841986	-0.08756246791444246	0.9528030239874185	0.9528030226988626	-0.5766328113806334	-0.4549463767355143	0.5070562144068237	0.1782041299810434	-0.06280290951957471	0.3798254888292498	0.3798254875369498	0.02543500232562836	-0.05616874553893333
142.512	-0.1621177649174914	0.1040821284620101	0.1994806233640898	1.189530158740564	0.9976908350073317	-0.3491766895827262	-0.05717075662384401	-0.1098227978789658	-0.09192092179821829	0.987901862498581	0.9879018610723586	-0.5652158713770332	-0.4522806923645079	0.507415734639424	0.1820252003407648	-0.05737909390787985	0.4058226997093888	0.4058226985367364	0.03664508679793774	-0.0707002661565926
142.516	-0.160572249220126	0.1053952561886978	0.2040142883181885	1.188964671864237	0.994749274429334	-0.350347339487926	-0.0456552475917529	-0.1160915551826293	-0.09672859035122203	1.023142365407464	1.023142363870586	-0.5534086989589071	-0.4487784990435909	0.508653352543898	0.1863363110099275	-0.05166236912085258	0.4336605969530358	0.4336605959437136	0.04843003254265708	-0.08695085128334647
142.52	-0.1593849507889857	0.1068350876414232	0.2088762314362635	1.188301232604228	0.9916917303903015	-0.3515531940911122	-0.03339303394327781	-0.1231258653252491	-0.1018688248958637	1.058474848863109	1.058474847250723	-0.5413376708937877	-0.4446212638978789	0.5107149194710476	0.1911297278732307	-0.04570315393213507	0.4629834534676862	0.4629834526539291	0.06069331373653444	-0.1046210207972703
142.524	-0.15859395069385	0.1083951636657135	0.2140244147815213	1.187537898483691	0.9885314066760218	-0.3527909715379732	-0.02032743487446114	-0.1309262451783409	-0.1072121323303519	1.093835749483555	1.09383574783765	-0.529129552661906	-0.4399956961804565	0.5135190951977726	0.1963860763408269	-0.03955359271524279	0.4934172396523477	0.4934172390534564	0.07331670202856524	-0.123405266932846
142.528	-0.1582236285576372	0.1100707133557524	0.2194069467847994	1.186674587035989	0.9852853362247572	-0.3540555346714471	-0.006416079049281629	-0.1394775004646159	-0.1126177169189029	1.129145913047042	1.129145911414471	-0.5169091793452156	-0.4350886658407949	0.5169569135371486	0.2020731102417511	-0.03326773175725328	0.5245761506269525	0.5245761502488495	0.08616828931932219	-0.142997472095428
142.532	-0.1582825880721889	0.1118584644969538	0.2249616390707081	1.185713270357417	0.9819744313218708	-0.3553397390586445	0.008366609068463593	-0.1487469079728478	-0.1179356324109651	1.164309671906987	1.164309670336915	-0.5047969438332635	-0.4300821844139159	0.5208923140676707	0.2081447094358944	-0.02690173248284103	0.5560696816428407	0.5560696814784547	0.09911074065902159	-0.1630957784033991
142.536	-0.1587618870000576	0.113756289112788	0.2306158629539858	1.184658115333953	0.9786233884905057	-0.3566343522433508	0.02402721056985756	-0.1586827524558401	-0.1230095499319547	1.199214653087318	1.199214651628306	-0.4929063802291113	-0.4251487836044375	0.5251634355165199	0.2145402625903542	-0.02051404876425637	0.5875098956339658	0.5875098956643614	0.1120092503382612	-0.183406909706726
142.54	-0.159633748001349	0.1157627126905161	0.2362867482872458	1.183515558008441	0.9752604396372464	-0.3579280567414918	0.04055155831136981	-0.1692133652613377	-0.1276800501658895	1.233732336306963	1.233732335004081	-0.4813418866048148	-0.4204473419524881	0.5295847281086908	0.2211845596920105	-0.01416547525513558	0.6185185951109978	0.6185185953072121	0.1247386358862068	-0.2036500429696578
142.544	-0.1608511162082197	0.1178762563959363	0.2418817843067661	1.182294294556557	0.9719169261070373	-0.3592075481751732	0.05790384685532084	-0.1802467770551066	-0.1317882747761917	1.26771945050767	1.267719449400028	-0.4701964039482845	-0.4161191500714813	0.5339501887101367	0.2279882860557824	-0.007918948905531803	0.6487341930376525	0.6487341933630265	0.1371890098952724	-0.2235603986832412
142.548	-0.1623483252928464	0.1200946139001765	0.2472998669035497	1.18100517767111	0.9686266882513999	-0.3604577351279141	0.07602689686307712	-0.1916710849452049	-0.1351797703763249	1.301020227954732	1.3010202270736	-0.4595489373584946	-0.4122840717594665	0.538037882608521	0.2348491856603944	-0.001839030516531721	0.6778180772162904	0.6778180776289169	0.1492696294760878	-0.2428926726242143
142.552	-0.1640428362238287	0.1224137466690922	0.2524327970140174	1.179661021175132	0.9654252988929084	-0.3616620393750327	0.09484348484039704	-0.2033556271117634	-0.1377084156843163	1.333469376268768	1.333469375636336	-0.4494620912675943	-0.4090369740581857	0.5416155315011245	0.241653927542148	0.004008911849252045	0.7054602235510029	0.7054602240059672	0.1609107982160763	-0.2614242842782095
142.556	-0.1658378527676457	0.1248270048392433	0.2571672146005276	1.178276324346464	0.9623491885591752	-0.3628027889240854	0.114258458923222	-0.2151530151607066	-0.139240363680039	1.364895539187892	1.364895538816766	-0.4399799651080145	-0.4064448110907719	0.5444467595143647	0.2482806551519718	0.009559746607719594	0.7313838383378751	0.7313838387891664	0.1720639215142351	-0.2789582973641238
142.56	-0.1676256544374599	0.1273243383736893	0.2613869450776323	1.176866928485546	0.9594347067211384	-0.363861691485746	0.134161442771047	-0.2269019985413142	-0.1396579076913362	1.395125035442404	1.395125035335887	-0.4311266914383074	-0.4045446931353982	0.5462976743518422	0.2546021336436531	0.01474978167622356	0.7553489046382731	0.7553489050404562	0.1826999214584255	-0.2953258475230102
142.564	-0.1692915332795703	0.1298916257621717	0.2649757079460733	1.175449618250389	0.956717156770578	-0.3648203699105123	0.1544300326694882	-0.2384310603345945	-0.1388631218861394	1.423985707706779	1.423985707859788	-0.4229057500895202	-0.4033431037117518	0.5469435661013776	0.2604893515202112	0.01951806153811633	0.7771546019926638	0.7771546023025764	0.19280626151848	-0.3103879507006541
142.568	-0.1707182019997894	0.132510134909016	0.2678200992747508	1.174041681694928	0.9542298417172979	-0.365660935485755	0.1749334098354999	-0.2495625831517492	-0.1367810856665507	1.451310733068587	1.451310733468889	-0.4153000921922535	-0.4028162942172817	0.546175525478602	0.2658153911617064	0.02380769255122154	0.7966406294020522	0.7966406295808359	0.2023828749092678	-0.3240366081109927
142.572	-0.1717904986522805	0.1351561222834666	0.2698127339882786	1.172660445700378	0.952003158634582	-0.366366572512164	0.1955362616306949	-0.2601173771241869	-0.1333625080301409	1.476942248334028	1.476942248963607	-0.4082730711859242	-0.4029118097359281	0.5438067611380982	0.2704593546294925	0.02756713418373793	0.8136874936293406	0.8136874936448978	0.2114373622173383	-0.3361951621227232
142.576	-0.1724001650806117	0.1378005679510912	0.2708554261201868	1.171322807073099	0.9500637805728825	-0.3669221079576179	0.2161028511979074	-0.269919333647748	-0.1285856230275788	1.500734638413964	1.500734639250523	-0.4017701774839211	-0.4035510696207696	0.5396783578994609	0.2743101155874623	0.03075139721868061	0.8282158404118494	0.8282158402414412	0.2199799073099769	-0.3468178863528126
142.58	-0.1724504504648421	0.1404090471277654	0.2708622849279592	1.170044781008725	0.9484339618884337	-0.3673145411180873	0.2365010395895215	-0.278799973010565	-0.1224572945331181	1.522557346591858	1.522557347610485	-0.3957215635386379	-0.4046329235200083	0.5336642100321318	0.2772696783844311	0.0333230939090584	0.8401849257766221	0.8401849254090803	0.2280183778599375	-0.3558888026282763
142.584	-0.1718603623345238	0.1429417611170752	0.2697625948712537	1.168841085803079	0.9471309895777653	-0.3675335089824783	0.256606151579822	-0.2866027123290096	-0.1150132866991183	1.542297122752321	1.542297123927146	-0.3900452840066077	-0.4060380690211428	0.525674977487113	0.2792559801257535	0.03525326770164145	0.849590358806959	0.8495903582439991	0.2355539715447386	-0.3634197479433777
142.588	-0.1705685134511777	0.1453537874573747	0.2675033295196667	1.167724778685827	0.9461667848671843	-0.3675716644181177	0.2763047269784547	-0.2931867715809992	-0.106317631929769	1.559859704762751	1.559859706068299	-0.3846510915711437	-0.4076341462692864	0.5156610831625246	0.2802050588310989	0.03652189148920292	0.8564612704293197	0.8564612696856451	0.2425776137515021	-0.3694477762281199
142.592	-0.1685365128915993	0.1475956365955912	0.2640511429804764	1.166706956890613	0.9455476553234136	-0.3674249473182687	0.2954981761190734	-0.2984306814034917	-0.09646104220064224	1.575170951571815	1.575170952983834	-0.3794446050100223	-0.4092813038429213	0.5036147713675097	0.2800725722996188	0.03711791609437775	0.8608570420038203	0.8608570411060209	0.2490672396325837	-0.3740319970544051
142.596	-0.1657517193562185	0.1496141779068828	0.259393699740095	1.165796538320258	0.9452742071845911	-0.3670927336420439	0.314106164823724	-0.3022353140422016	-0.08555838622011605	1.588177411515173	1.588177413010849	-0.3743316933157346	-0.4108380575088696	0.489571097241679	0.2788346494429483	0.03703880736979067	0.8628636900571244	0.8628636890416496	0.254986089311395	-0.3772499329230661
142.6	-0.162229086656855	0.1513539092133187	0.2535402544746844	1.165000132301553	0.9453414315135584	-0.3665778549420272	0.3320694134912775	-0.3045262753378924	-0.07374535980853275	1.598846284082126	1.598846285639804	-0.3692229197331761	-0.4121672572368906	0.4736076379669825	0.2764880232703267	0.03628962417818005	0.8625900039834928	0.8625900028940507	0.260282099244533	-0.3791935050415597
142.604	-0.158011844736557	0.1527584599590428	0.2465214631921976	1.164322004334464	0.9457389719559577	-0.3658864906402894	0.3493515755433004	-0.3052554621778311	-0.06117457053173177	1.607164742418256	1.607164744016969	-0.3640378657406589	-0.413141949564104	0.455842755848268	0.273049398906924	0.03488180001192771	0.8601635547385267	0.8601635536231435	0.2648883854711776	-0.3799648089946617
142.608	-0.1531708473550082	0.1537722143591377	0.2383884490607134	1.163764133331427	0.946451571147425	-0.3650279426012382	0.3659399350354982	-0.304401662478918	-0.04801127777729212	1.613138620147177	1.613138621766247	-0.3587091495039121	-0.4136509168255572	0.4364323389068537	0.2685540763994809	0.03283179887027662	0.8557266835095758	0.8557266824174418	0.2687247406097693	-0.3796718422128351
142.612	-0.1478025457292449	0.1543419897558006	0.2292111528163209	1.163326355474736	0.9474596796901061	-0.3640143049494706	0.3818448004326919	-0.3019702024235696	-0.03442897368642028	1.616790519438598	1.616790521057272	-0.3531859598947339	-0.413603679406362	0.4155650680408287	0.263053934890213	0.03015973484038644	0.8494325461370881	0.8494325451153477	0.2717000037131749	-0.378424312417651
